<mxfile host="app.diagrams.net" modified="2024-02-07T17:13:27.261Z" agent="Mozilla/5.0 (X11; Linux x86_64) AppleWebKit/537.36 (KHTML, like Gecko) Chrome/121.0.0.0 Safari/537.36" etag="kJOclM4zsbtGHbOPnE4o" version="23.1.1" type="github">
  <diagram name="Page-1" id="74e2e168-ea6b-b213-b513-2b3c1d86103e">
    <mxGraphModel dx="1120" dy="508" grid="1" gridSize="10" guides="1" tooltips="1" connect="1" arrows="1" fold="1" page="1" pageScale="1" pageWidth="1100" pageHeight="850" background="none" math="0" shadow="0">
      <root>
        <mxCell id="0" />
        <mxCell id="1" parent="0" />
        <mxCell id="rX8bHVws03hy2yk5hLny-1" value="request" style="ellipse;whiteSpace=wrap;html=1;" parent="1" vertex="1">
          <mxGeometry x="40" y="30" width="120" height="80" as="geometry" />
        </mxCell>
        <mxCell id="rX8bHVws03hy2yk5hLny-2" value="responce" style="ellipse;whiteSpace=wrap;html=1;" parent="1" vertex="1">
          <mxGeometry x="360" y="1990" width="120" height="80" as="geometry" />
        </mxCell>
        <mxCell id="rX8bHVws03hy2yk5hLny-13" value="" style="endArrow=classic;html=1;rounded=0;exitX=0.5;exitY=1;exitDx=0;exitDy=0;entryX=0.5;entryY=0;entryDx=0;entryDy=0;" parent="1" source="rX8bHVws03hy2yk5hLny-1" target="rX8bHVws03hy2yk5hLny-14" edge="1">
          <mxGeometry width="50" height="50" relative="1" as="geometry">
            <mxPoint x="500" y="260" as="sourcePoint" />
            <mxPoint x="100" y="140" as="targetPoint" />
          </mxGeometry>
        </mxCell>
        <mxCell id="rX8bHVws03hy2yk5hLny-14" value="Request&lt;br&gt;&amp;nbsp;is log or&lt;br&gt;&#39; &#39;?" style="rhombus;whiteSpace=wrap;html=1;" parent="1" vertex="1">
          <mxGeometry x="60" y="150" width="80" height="80" as="geometry" />
        </mxCell>
        <mxCell id="VlW7znGUgv2M6Y1tv0mL-11" value="Request&lt;br style=&quot;border-color: var(--border-color);&quot;&gt;&amp;nbsp;is scrum?" style="rhombus;whiteSpace=wrap;html=1;" vertex="1" parent="1">
          <mxGeometry x="60" y="360" width="80" height="80" as="geometry" />
        </mxCell>
        <mxCell id="VlW7znGUgv2M6Y1tv0mL-12" value="" style="endArrow=classic;html=1;rounded=0;exitX=0.5;exitY=1;exitDx=0;exitDy=0;" edge="1" parent="1" source="rX8bHVws03hy2yk5hLny-14" target="VlW7znGUgv2M6Y1tv0mL-11">
          <mxGeometry width="50" height="50" relative="1" as="geometry">
            <mxPoint x="340" y="290" as="sourcePoint" />
            <mxPoint x="390" y="240" as="targetPoint" />
          </mxGeometry>
        </mxCell>
        <mxCell id="VlW7znGUgv2M6Y1tv0mL-13" value="$page = new ProjectLogPage;" style="rounded=0;whiteSpace=wrap;html=1;" vertex="1" parent="1">
          <mxGeometry x="200" y="160" width="120" height="60" as="geometry" />
        </mxCell>
        <mxCell id="VlW7znGUgv2M6Y1tv0mL-14" value="" style="endArrow=classic;html=1;rounded=0;exitX=1;exitY=0.5;exitDx=0;exitDy=0;entryX=0;entryY=0.5;entryDx=0;entryDy=0;" edge="1" parent="1" source="rX8bHVws03hy2yk5hLny-14" target="VlW7znGUgv2M6Y1tv0mL-13">
          <mxGeometry width="50" height="50" relative="1" as="geometry">
            <mxPoint x="340" y="290" as="sourcePoint" />
            <mxPoint x="390" y="240" as="targetPoint" />
          </mxGeometry>
        </mxCell>
        <mxCell id="VlW7znGUgv2M6Y1tv0mL-15" value="Render" style="rounded=0;whiteSpace=wrap;html=1;" vertex="1" parent="1">
          <mxGeometry x="200" y="270" width="120" height="60" as="geometry" />
        </mxCell>
        <mxCell id="VlW7znGUgv2M6Y1tv0mL-16" value="" style="endArrow=classic;html=1;rounded=0;exitX=0.5;exitY=1;exitDx=0;exitDy=0;entryX=0.5;entryY=0;entryDx=0;entryDy=0;" edge="1" parent="1" source="VlW7znGUgv2M6Y1tv0mL-13" target="VlW7znGUgv2M6Y1tv0mL-15">
          <mxGeometry width="50" height="50" relative="1" as="geometry">
            <mxPoint x="260" y="290" as="sourcePoint" />
            <mxPoint x="310" y="240" as="targetPoint" />
          </mxGeometry>
        </mxCell>
        <mxCell id="VlW7znGUgv2M6Y1tv0mL-17" value="$page = new ScrumPage;" style="rounded=0;whiteSpace=wrap;html=1;" vertex="1" parent="1">
          <mxGeometry x="200" y="370" width="120" height="60" as="geometry" />
        </mxCell>
        <mxCell id="VlW7znGUgv2M6Y1tv0mL-18" value="" style="endArrow=classic;html=1;rounded=0;exitX=1;exitY=0.5;exitDx=0;exitDy=0;entryX=0;entryY=0.5;entryDx=0;entryDy=0;" edge="1" parent="1" source="VlW7znGUgv2M6Y1tv0mL-11" target="VlW7znGUgv2M6Y1tv0mL-17">
          <mxGeometry width="50" height="50" relative="1" as="geometry">
            <mxPoint x="340" y="390" as="sourcePoint" />
            <mxPoint x="390" y="340" as="targetPoint" />
          </mxGeometry>
        </mxCell>
        <mxCell id="VlW7znGUgv2M6Y1tv0mL-19" value="Request&lt;br style=&quot;border-color: var(--border-color);&quot;&gt;&amp;nbsp;is methodology?" style="rhombus;whiteSpace=wrap;html=1;" vertex="1" parent="1">
          <mxGeometry x="60" y="550" width="80" height="80" as="geometry" />
        </mxCell>
        <mxCell id="VlW7znGUgv2M6Y1tv0mL-20" value="" style="endArrow=classic;html=1;rounded=0;exitX=0.5;exitY=1;exitDx=0;exitDy=0;entryX=0.5;entryY=0;entryDx=0;entryDy=0;" edge="1" parent="1" source="VlW7znGUgv2M6Y1tv0mL-11" target="VlW7znGUgv2M6Y1tv0mL-19">
          <mxGeometry width="50" height="50" relative="1" as="geometry">
            <mxPoint x="340" y="510" as="sourcePoint" />
            <mxPoint x="390" y="460" as="targetPoint" />
          </mxGeometry>
        </mxCell>
        <mxCell id="VlW7znGUgv2M6Y1tv0mL-21" value="$page = new MethodologyPage;" style="rounded=0;whiteSpace=wrap;html=1;" vertex="1" parent="1">
          <mxGeometry x="200" y="560" width="120" height="60" as="geometry" />
        </mxCell>
        <mxCell id="VlW7znGUgv2M6Y1tv0mL-22" value="" style="endArrow=classic;html=1;rounded=0;exitX=1;exitY=0.5;exitDx=0;exitDy=0;entryX=0;entryY=0.5;entryDx=0;entryDy=0;" edge="1" parent="1" source="VlW7znGUgv2M6Y1tv0mL-19" target="VlW7znGUgv2M6Y1tv0mL-21">
          <mxGeometry width="50" height="50" relative="1" as="geometry">
            <mxPoint x="340" y="590" as="sourcePoint" />
            <mxPoint x="390" y="540" as="targetPoint" />
          </mxGeometry>
        </mxCell>
        <mxCell id="VlW7znGUgv2M6Y1tv0mL-23" value="Render" style="rounded=0;whiteSpace=wrap;html=1;" vertex="1" parent="1">
          <mxGeometry x="200" y="465" width="120" height="60" as="geometry" />
        </mxCell>
        <mxCell id="VlW7znGUgv2M6Y1tv0mL-24" value="" style="endArrow=classic;html=1;rounded=0;exitX=0.5;exitY=1;exitDx=0;exitDy=0;entryX=0.5;entryY=0;entryDx=0;entryDy=0;" edge="1" parent="1" source="VlW7znGUgv2M6Y1tv0mL-17" target="VlW7znGUgv2M6Y1tv0mL-23">
          <mxGeometry width="50" height="50" relative="1" as="geometry">
            <mxPoint x="340" y="510" as="sourcePoint" />
            <mxPoint x="390" y="460" as="targetPoint" />
          </mxGeometry>
        </mxCell>
        <mxCell id="VlW7znGUgv2M6Y1tv0mL-25" value="Render" style="rounded=0;whiteSpace=wrap;html=1;" vertex="1" parent="1">
          <mxGeometry x="200" y="650" width="120" height="60" as="geometry" />
        </mxCell>
        <mxCell id="VlW7znGUgv2M6Y1tv0mL-26" value="" style="endArrow=classic;html=1;rounded=0;exitX=0.5;exitY=1;exitDx=0;exitDy=0;entryX=0.5;entryY=0;entryDx=0;entryDy=0;" edge="1" parent="1" source="VlW7znGUgv2M6Y1tv0mL-21" target="VlW7znGUgv2M6Y1tv0mL-25">
          <mxGeometry width="50" height="50" relative="1" as="geometry">
            <mxPoint x="340" y="750" as="sourcePoint" />
            <mxPoint x="390" y="700" as="targetPoint" />
          </mxGeometry>
        </mxCell>
        <mxCell id="VlW7znGUgv2M6Y1tv0mL-27" value="Request&lt;br style=&quot;border-color: var(--border-color);&quot;&gt;&amp;nbsp;[&#39;settings&#39;, &#39;import-settings&#39;, &#39;export-settings&#39;] is true?" style="rhombus;whiteSpace=wrap;html=1;" vertex="1" parent="1">
          <mxGeometry x="60" y="740" width="80" height="80" as="geometry" />
        </mxCell>
        <mxCell id="VlW7znGUgv2M6Y1tv0mL-28" value="" style="endArrow=classic;html=1;rounded=0;exitX=0.5;exitY=1;exitDx=0;exitDy=0;entryX=0.5;entryY=0;entryDx=0;entryDy=0;" edge="1" parent="1" source="VlW7znGUgv2M6Y1tv0mL-19" target="VlW7znGUgv2M6Y1tv0mL-27">
          <mxGeometry width="50" height="50" relative="1" as="geometry">
            <mxPoint x="340" y="750" as="sourcePoint" />
            <mxPoint x="390" y="700" as="targetPoint" />
          </mxGeometry>
        </mxCell>
        <mxCell id="VlW7znGUgv2M6Y1tv0mL-29" value="$page = new ProjectSettingsPage;" style="rounded=0;whiteSpace=wrap;html=1;" vertex="1" parent="1">
          <mxGeometry x="200" y="750" width="120" height="60" as="geometry" />
        </mxCell>
        <mxCell id="VlW7znGUgv2M6Y1tv0mL-30" value="" style="endArrow=classic;html=1;rounded=0;exitX=1;exitY=0.5;exitDx=0;exitDy=0;entryX=0;entryY=0.5;entryDx=0;entryDy=0;" edge="1" parent="1" source="VlW7znGUgv2M6Y1tv0mL-27" target="VlW7znGUgv2M6Y1tv0mL-29">
          <mxGeometry width="50" height="50" relative="1" as="geometry">
            <mxPoint x="340" y="750" as="sourcePoint" />
            <mxPoint x="390" y="700" as="targetPoint" />
          </mxGeometry>
        </mxCell>
        <mxCell id="VlW7znGUgv2M6Y1tv0mL-31" value="Render" style="rounded=0;whiteSpace=wrap;html=1;" vertex="1" parent="1">
          <mxGeometry x="200" y="840" width="120" height="60" as="geometry" />
        </mxCell>
        <mxCell id="VlW7znGUgv2M6Y1tv0mL-32" value="" style="endArrow=classic;html=1;rounded=0;exitX=0.5;exitY=1;exitDx=0;exitDy=0;entryX=0.5;entryY=0;entryDx=0;entryDy=0;" edge="1" parent="1" source="VlW7znGUgv2M6Y1tv0mL-29" target="VlW7znGUgv2M6Y1tv0mL-31">
          <mxGeometry width="50" height="50" relative="1" as="geometry">
            <mxPoint x="340" y="750" as="sourcePoint" />
            <mxPoint x="390" y="700" as="targetPoint" />
          </mxGeometry>
        </mxCell>
        <mxCell id="VlW7znGUgv2M6Y1tv0mL-33" value="Request&lt;br style=&quot;border-color: var(--border-color);&quot;&gt;&amp;nbsp;is&lt;br&gt;question&lt;span style=&quot;background-color: initial;&quot;&gt;?&lt;/span&gt;" style="rhombus;whiteSpace=wrap;html=1;" vertex="1" parent="1">
          <mxGeometry x="60" y="940" width="80" height="80" as="geometry" />
        </mxCell>
        <mxCell id="VlW7znGUgv2M6Y1tv0mL-34" value="" style="endArrow=classic;html=1;rounded=0;exitX=0.5;exitY=1;exitDx=0;exitDy=0;entryX=0.5;entryY=0;entryDx=0;entryDy=0;" edge="1" parent="1" source="VlW7znGUgv2M6Y1tv0mL-27" target="VlW7znGUgv2M6Y1tv0mL-33">
          <mxGeometry width="50" height="50" relative="1" as="geometry">
            <mxPoint x="340" y="970" as="sourcePoint" />
            <mxPoint x="390" y="920" as="targetPoint" />
          </mxGeometry>
        </mxCell>
        <mxCell id="VlW7znGUgv2M6Y1tv0mL-35" value="$page = new ProjectSettingsPage;" style="rounded=0;whiteSpace=wrap;html=1;" vertex="1" parent="1">
          <mxGeometry x="200" y="950" width="120" height="60" as="geometry" />
        </mxCell>
        <mxCell id="VlW7znGUgv2M6Y1tv0mL-36" value="" style="endArrow=classic;html=1;rounded=0;exitX=1;exitY=0.5;exitDx=0;exitDy=0;entryX=0;entryY=0.5;entryDx=0;entryDy=0;" edge="1" parent="1" source="VlW7znGUgv2M6Y1tv0mL-33" target="VlW7znGUgv2M6Y1tv0mL-35">
          <mxGeometry width="50" height="50" relative="1" as="geometry">
            <mxPoint x="340" y="970" as="sourcePoint" />
            <mxPoint x="390" y="920" as="targetPoint" />
          </mxGeometry>
        </mxCell>
        <mxCell id="VlW7znGUgv2M6Y1tv0mL-37" value="Render" style="rounded=0;whiteSpace=wrap;html=1;" vertex="1" parent="1">
          <mxGeometry x="200" y="1040" width="120" height="60" as="geometry" />
        </mxCell>
        <mxCell id="VlW7znGUgv2M6Y1tv0mL-38" value="" style="endArrow=classic;html=1;rounded=0;exitX=0.5;exitY=1;exitDx=0;exitDy=0;entryX=0.5;entryY=0;entryDx=0;entryDy=0;" edge="1" parent="1" source="VlW7znGUgv2M6Y1tv0mL-35" target="VlW7znGUgv2M6Y1tv0mL-37">
          <mxGeometry width="50" height="50" relative="1" as="geometry">
            <mxPoint x="340" y="970" as="sourcePoint" />
            <mxPoint x="390" y="920" as="targetPoint" />
          </mxGeometry>
        </mxCell>
        <mxCell id="VlW7znGUgv2M6Y1tv0mL-39" value="Request&lt;br style=&quot;border-color: var(--border-color);&quot;&gt;&amp;nbsp;is&lt;br&gt;tags&lt;span style=&quot;background-color: initial;&quot;&gt;?&lt;/span&gt;" style="rhombus;whiteSpace=wrap;html=1;" vertex="1" parent="1">
          <mxGeometry x="60" y="1140" width="80" height="80" as="geometry" />
        </mxCell>
        <mxCell id="VlW7znGUgv2M6Y1tv0mL-40" value="$page = new&amp;nbsp;TagPage&lt;span style=&quot;background-color: initial;&quot;&gt;;&lt;/span&gt;" style="rounded=0;whiteSpace=wrap;html=1;" vertex="1" parent="1">
          <mxGeometry x="200" y="1150" width="120" height="60" as="geometry" />
        </mxCell>
        <mxCell id="VlW7znGUgv2M6Y1tv0mL-41" value="Render" style="rounded=0;whiteSpace=wrap;html=1;" vertex="1" parent="1">
          <mxGeometry x="200" y="1240" width="120" height="60" as="geometry" />
        </mxCell>
        <mxCell id="VlW7znGUgv2M6Y1tv0mL-42" value="" style="endArrow=classic;html=1;rounded=0;exitX=1;exitY=0.5;exitDx=0;exitDy=0;entryX=0;entryY=0.5;entryDx=0;entryDy=0;" edge="1" parent="1" source="VlW7znGUgv2M6Y1tv0mL-39" target="VlW7znGUgv2M6Y1tv0mL-40">
          <mxGeometry width="50" height="50" relative="1" as="geometry">
            <mxPoint x="340" y="1330" as="sourcePoint" />
            <mxPoint x="390" y="1280" as="targetPoint" />
          </mxGeometry>
        </mxCell>
        <mxCell id="VlW7znGUgv2M6Y1tv0mL-43" value="" style="endArrow=classic;html=1;rounded=0;exitX=0.5;exitY=1;exitDx=0;exitDy=0;entryX=0.5;entryY=0;entryDx=0;entryDy=0;" edge="1" parent="1" source="VlW7znGUgv2M6Y1tv0mL-40" target="VlW7znGUgv2M6Y1tv0mL-41">
          <mxGeometry width="50" height="50" relative="1" as="geometry">
            <mxPoint x="340" y="1330" as="sourcePoint" />
            <mxPoint x="390" y="1280" as="targetPoint" />
          </mxGeometry>
        </mxCell>
        <mxCell id="VlW7znGUgv2M6Y1tv0mL-44" value="" style="endArrow=classic;html=1;rounded=0;exitX=0.5;exitY=1;exitDx=0;exitDy=0;entryX=0.5;entryY=0;entryDx=0;entryDy=0;" edge="1" parent="1" source="VlW7znGUgv2M6Y1tv0mL-33" target="VlW7znGUgv2M6Y1tv0mL-39">
          <mxGeometry width="50" height="50" relative="1" as="geometry">
            <mxPoint x="340" y="1090" as="sourcePoint" />
            <mxPoint x="390" y="1040" as="targetPoint" />
          </mxGeometry>
        </mxCell>
        <mxCell id="VlW7znGUgv2M6Y1tv0mL-45" value="Request&lt;br style=&quot;border-color: var(--border-color);&quot;&gt;&amp;nbsp;is&amp;nbsp;dicts or&lt;br&gt;workflow&lt;span style=&quot;background-color: initial;&quot;&gt;?&lt;/span&gt;" style="rhombus;whiteSpace=wrap;html=1;" vertex="1" parent="1">
          <mxGeometry x="60" y="1330" width="80" height="80" as="geometry" />
        </mxCell>
        <mxCell id="VlW7znGUgv2M6Y1tv0mL-46" value="$page = new&amp;nbsp;DictionaryPage&lt;span style=&quot;background-color: initial;&quot;&gt;;&lt;/span&gt;" style="rounded=0;whiteSpace=wrap;html=1;" vertex="1" parent="1">
          <mxGeometry x="200" y="1340" width="120" height="60" as="geometry" />
        </mxCell>
        <mxCell id="VlW7znGUgv2M6Y1tv0mL-47" value="" style="endArrow=classic;html=1;rounded=0;exitX=1;exitY=0.5;exitDx=0;exitDy=0;entryX=0;entryY=0.5;entryDx=0;entryDy=0;" edge="1" parent="1" source="VlW7znGUgv2M6Y1tv0mL-45" target="VlW7znGUgv2M6Y1tv0mL-46">
          <mxGeometry width="50" height="50" relative="1" as="geometry">
            <mxPoint x="340" y="1440" as="sourcePoint" />
            <mxPoint x="390" y="1390" as="targetPoint" />
          </mxGeometry>
        </mxCell>
        <mxCell id="VlW7znGUgv2M6Y1tv0mL-48" value="" style="endArrow=classic;html=1;rounded=0;exitX=0.5;exitY=1;exitDx=0;exitDy=0;" edge="1" parent="1" source="VlW7znGUgv2M6Y1tv0mL-39" target="VlW7znGUgv2M6Y1tv0mL-45">
          <mxGeometry width="50" height="50" relative="1" as="geometry">
            <mxPoint x="340" y="1440" as="sourcePoint" />
            <mxPoint x="390" y="1390" as="targetPoint" />
          </mxGeometry>
        </mxCell>
        <mxCell id="VlW7znGUgv2M6Y1tv0mL-49" value="Render" style="rounded=0;whiteSpace=wrap;html=1;" vertex="1" parent="1">
          <mxGeometry x="200" y="1430" width="120" height="60" as="geometry" />
        </mxCell>
        <mxCell id="VlW7znGUgv2M6Y1tv0mL-50" value="" style="endArrow=classic;html=1;rounded=0;exitX=0.5;exitY=1;exitDx=0;exitDy=0;entryX=0.5;entryY=0;entryDx=0;entryDy=0;" edge="1" parent="1" source="VlW7znGUgv2M6Y1tv0mL-46" target="VlW7znGUgv2M6Y1tv0mL-49">
          <mxGeometry width="50" height="50" relative="1" as="geometry">
            <mxPoint x="340" y="1440" as="sourcePoint" />
            <mxPoint x="390" y="1390" as="targetPoint" />
          </mxGeometry>
        </mxCell>
        <mxCell id="VlW7znGUgv2M6Y1tv0mL-51" value="Request&lt;br style=&quot;border-color: var(--border-color);&quot;&gt;&amp;nbsp;is quick-edit&lt;span style=&quot;background-color: initial;&quot;&gt;?&lt;/span&gt;" style="rhombus;whiteSpace=wrap;html=1;" vertex="1" parent="1">
          <mxGeometry x="60" y="1510" width="80" height="80" as="geometry" />
        </mxCell>
        <mxCell id="VlW7znGUgv2M6Y1tv0mL-52" value="$page = new&amp;nbsp;QuickEditPage&lt;span style=&quot;background-color: initial;&quot;&gt;;&lt;/span&gt;" style="rounded=0;whiteSpace=wrap;html=1;" vertex="1" parent="1">
          <mxGeometry x="200" y="1520" width="120" height="60" as="geometry" />
        </mxCell>
        <mxCell id="VlW7znGUgv2M6Y1tv0mL-53" value="" style="endArrow=classic;html=1;rounded=0;exitX=1;exitY=0.5;exitDx=0;exitDy=0;entryX=0;entryY=0.5;entryDx=0;entryDy=0;" edge="1" parent="1" source="VlW7znGUgv2M6Y1tv0mL-51" target="VlW7znGUgv2M6Y1tv0mL-52">
          <mxGeometry width="50" height="50" relative="1" as="geometry">
            <mxPoint x="340" y="1560" as="sourcePoint" />
            <mxPoint x="390" y="1510" as="targetPoint" />
          </mxGeometry>
        </mxCell>
        <mxCell id="VlW7znGUgv2M6Y1tv0mL-54" value="Render" style="rounded=0;whiteSpace=wrap;html=1;" vertex="1" parent="1">
          <mxGeometry x="200" y="1610" width="120" height="60" as="geometry" />
        </mxCell>
        <mxCell id="VlW7znGUgv2M6Y1tv0mL-55" value="" style="endArrow=classic;html=1;rounded=0;exitX=0.5;exitY=1;exitDx=0;exitDy=0;entryX=0.5;entryY=0;entryDx=0;entryDy=0;" edge="1" parent="1" source="VlW7znGUgv2M6Y1tv0mL-52" target="VlW7znGUgv2M6Y1tv0mL-54">
          <mxGeometry width="50" height="50" relative="1" as="geometry">
            <mxPoint x="340" y="1560" as="sourcePoint" />
            <mxPoint x="390" y="1510" as="targetPoint" />
          </mxGeometry>
        </mxCell>
        <mxCell id="VlW7znGUgv2M6Y1tv0mL-56" value="" style="endArrow=classic;html=1;rounded=0;exitX=0.5;exitY=1;exitDx=0;exitDy=0;entryX=0.5;entryY=0;entryDx=0;entryDy=0;" edge="1" parent="1" source="VlW7znGUgv2M6Y1tv0mL-45" target="VlW7znGUgv2M6Y1tv0mL-51">
          <mxGeometry width="50" height="50" relative="1" as="geometry">
            <mxPoint x="340" y="1560" as="sourcePoint" />
            <mxPoint x="390" y="1510" as="targetPoint" />
          </mxGeometry>
        </mxCell>
        <mxCell id="VlW7znGUgv2M6Y1tv0mL-57" value="Request&lt;br style=&quot;border-color: var(--border-color);&quot;&gt;&amp;nbsp;is&amp;nbsp;reports&lt;span style=&quot;background-color: initial;&quot;&gt;?&lt;/span&gt;" style="rhombus;whiteSpace=wrap;html=1;" vertex="1" parent="1">
          <mxGeometry x="60" y="1700" width="80" height="80" as="geometry" />
        </mxCell>
        <mxCell id="VlW7znGUgv2M6Y1tv0mL-58" value="$page = new&amp;nbsp;ReportPage&lt;span style=&quot;background-color: initial;&quot;&gt;;&lt;/span&gt;" style="rounded=0;whiteSpace=wrap;html=1;" vertex="1" parent="1">
          <mxGeometry x="200" y="1710" width="120" height="60" as="geometry" />
        </mxCell>
        <mxCell id="VlW7znGUgv2M6Y1tv0mL-59" value="" style="endArrow=classic;html=1;rounded=0;exitX=1;exitY=0.5;exitDx=0;exitDy=0;" edge="1" parent="1" source="VlW7znGUgv2M6Y1tv0mL-57">
          <mxGeometry width="50" height="50" relative="1" as="geometry">
            <mxPoint x="340" y="1800" as="sourcePoint" />
            <mxPoint x="200" y="1740" as="targetPoint" />
          </mxGeometry>
        </mxCell>
        <mxCell id="VlW7znGUgv2M6Y1tv0mL-61" value="Render" style="rounded=0;whiteSpace=wrap;html=1;" vertex="1" parent="1">
          <mxGeometry x="200" y="1800" width="120" height="60" as="geometry" />
        </mxCell>
        <mxCell id="VlW7znGUgv2M6Y1tv0mL-62" value="" style="endArrow=classic;html=1;rounded=0;exitX=0.5;exitY=1;exitDx=0;exitDy=0;entryX=0.5;entryY=0;entryDx=0;entryDy=0;" edge="1" parent="1" source="VlW7znGUgv2M6Y1tv0mL-58" target="VlW7znGUgv2M6Y1tv0mL-61">
          <mxGeometry width="50" height="50" relative="1" as="geometry">
            <mxPoint x="340" y="1800" as="sourcePoint" />
            <mxPoint x="390" y="1750" as="targetPoint" />
          </mxGeometry>
        </mxCell>
        <mxCell id="VlW7znGUgv2M6Y1tv0mL-63" value="" style="endArrow=classic;html=1;rounded=0;exitX=0.5;exitY=1;exitDx=0;exitDy=0;entryX=0.5;entryY=0;entryDx=0;entryDy=0;" edge="1" parent="1" source="VlW7znGUgv2M6Y1tv0mL-51" target="VlW7znGUgv2M6Y1tv0mL-57">
          <mxGeometry width="50" height="50" relative="1" as="geometry">
            <mxPoint x="340" y="1800" as="sourcePoint" />
            <mxPoint x="390" y="1750" as="targetPoint" />
          </mxGeometry>
        </mxCell>
        <mxCell id="VlW7znGUgv2M6Y1tv0mL-64" value="" style="rhombus;whiteSpace=wrap;html=1;" vertex="1" parent="1">
          <mxGeometry x="60" y="1860" width="80" height="80" as="geometry" />
        </mxCell>
        <mxCell id="VlW7znGUgv2M6Y1tv0mL-65" value="" style="endArrow=classic;html=1;rounded=0;exitX=0.5;exitY=1;exitDx=0;exitDy=0;entryX=0.5;entryY=0;entryDx=0;entryDy=0;" edge="1" parent="1" source="VlW7znGUgv2M6Y1tv0mL-57" target="VlW7znGUgv2M6Y1tv0mL-64">
          <mxGeometry width="50" height="50" relative="1" as="geometry">
            <mxPoint x="340" y="1920" as="sourcePoint" />
            <mxPoint x="390" y="1870" as="targetPoint" />
          </mxGeometry>
        </mxCell>
        <mxCell id="VlW7znGUgv2M6Y1tv0mL-66" value="" style="endArrow=classic;html=1;rounded=0;exitX=1;exitY=0.5;exitDx=0;exitDy=0;entryX=0.5;entryY=0;entryDx=0;entryDy=0;" edge="1" parent="1" source="VlW7znGUgv2M6Y1tv0mL-15" target="rX8bHVws03hy2yk5hLny-2">
          <mxGeometry width="50" height="50" relative="1" as="geometry">
            <mxPoint x="380" y="180" as="sourcePoint" />
            <mxPoint x="480" y="1980" as="targetPoint" />
            <Array as="points">
              <mxPoint x="420" y="300" />
            </Array>
          </mxGeometry>
        </mxCell>
        <mxCell id="VlW7znGUgv2M6Y1tv0mL-67" value="" style="endArrow=none;html=1;rounded=0;exitX=1;exitY=0.5;exitDx=0;exitDy=0;entryX=0.5;entryY=0;entryDx=0;entryDy=0;" edge="1" parent="1" source="VlW7znGUgv2M6Y1tv0mL-23" target="rX8bHVws03hy2yk5hLny-2">
          <mxGeometry width="50" height="50" relative="1" as="geometry">
            <mxPoint x="340" y="260" as="sourcePoint" />
            <mxPoint x="420" y="495" as="targetPoint" />
            <Array as="points">
              <mxPoint x="420" y="495" />
            </Array>
          </mxGeometry>
        </mxCell>
        <mxCell id="VlW7znGUgv2M6Y1tv0mL-68" value="" style="endArrow=none;html=1;rounded=0;exitX=1;exitY=0.5;exitDx=0;exitDy=0;entryX=0.5;entryY=0;entryDx=0;entryDy=0;" edge="1" parent="1" source="VlW7znGUgv2M6Y1tv0mL-25" target="rX8bHVws03hy2yk5hLny-2">
          <mxGeometry width="50" height="50" relative="1" as="geometry">
            <mxPoint x="340" y="620" as="sourcePoint" />
            <mxPoint x="390" y="570" as="targetPoint" />
            <Array as="points">
              <mxPoint x="420" y="680" />
            </Array>
          </mxGeometry>
        </mxCell>
        <mxCell id="VlW7znGUgv2M6Y1tv0mL-69" value="" style="endArrow=none;html=1;rounded=0;exitX=1.017;exitY=0.617;exitDx=0;exitDy=0;exitPerimeter=0;entryX=0.5;entryY=0;entryDx=0;entryDy=0;" edge="1" parent="1" source="VlW7znGUgv2M6Y1tv0mL-31" target="rX8bHVws03hy2yk5hLny-2">
          <mxGeometry width="50" height="50" relative="1" as="geometry">
            <mxPoint x="340" y="860" as="sourcePoint" />
            <mxPoint x="390" y="810" as="targetPoint" />
            <Array as="points">
              <mxPoint x="420" y="877" />
            </Array>
          </mxGeometry>
        </mxCell>
        <mxCell id="VlW7znGUgv2M6Y1tv0mL-70" value="" style="endArrow=none;html=1;rounded=0;exitX=1;exitY=0.5;exitDx=0;exitDy=0;entryX=0.5;entryY=0;entryDx=0;entryDy=0;" edge="1" parent="1" source="VlW7znGUgv2M6Y1tv0mL-37" target="rX8bHVws03hy2yk5hLny-2">
          <mxGeometry width="50" height="50" relative="1" as="geometry">
            <mxPoint x="340" y="980" as="sourcePoint" />
            <mxPoint x="390" y="930" as="targetPoint" />
            <Array as="points">
              <mxPoint x="420" y="1070" />
            </Array>
          </mxGeometry>
        </mxCell>
        <mxCell id="VlW7znGUgv2M6Y1tv0mL-71" value="" style="endArrow=none;html=1;rounded=0;exitX=1;exitY=0.5;exitDx=0;exitDy=0;entryX=0.5;entryY=0;entryDx=0;entryDy=0;" edge="1" parent="1" source="VlW7znGUgv2M6Y1tv0mL-41" target="rX8bHVws03hy2yk5hLny-2">
          <mxGeometry width="50" height="50" relative="1" as="geometry">
            <mxPoint x="340" y="1340" as="sourcePoint" />
            <mxPoint x="390" y="1290" as="targetPoint" />
            <Array as="points">
              <mxPoint x="420" y="1270" />
            </Array>
          </mxGeometry>
        </mxCell>
        <mxCell id="VlW7znGUgv2M6Y1tv0mL-72" value="" style="endArrow=none;html=1;rounded=0;exitX=1;exitY=0.5;exitDx=0;exitDy=0;entryX=0.5;entryY=0;entryDx=0;entryDy=0;" edge="1" parent="1" source="VlW7znGUgv2M6Y1tv0mL-49" target="rX8bHVws03hy2yk5hLny-2">
          <mxGeometry width="50" height="50" relative="1" as="geometry">
            <mxPoint x="340" y="1460" as="sourcePoint" />
            <mxPoint x="390" y="1410" as="targetPoint" />
            <Array as="points">
              <mxPoint x="420" y="1460" />
            </Array>
          </mxGeometry>
        </mxCell>
        <mxCell id="VlW7znGUgv2M6Y1tv0mL-73" value="" style="endArrow=none;html=1;rounded=0;exitX=1;exitY=0.5;exitDx=0;exitDy=0;entryX=0.5;entryY=0;entryDx=0;entryDy=0;" edge="1" parent="1" source="VlW7znGUgv2M6Y1tv0mL-54" target="rX8bHVws03hy2yk5hLny-2">
          <mxGeometry width="50" height="50" relative="1" as="geometry">
            <mxPoint x="340" y="1700" as="sourcePoint" />
            <mxPoint x="390" y="1650" as="targetPoint" />
            <Array as="points">
              <mxPoint x="420" y="1640" />
            </Array>
          </mxGeometry>
        </mxCell>
        <mxCell id="VlW7znGUgv2M6Y1tv0mL-74" value="" style="endArrow=none;html=1;rounded=0;exitX=1;exitY=0.5;exitDx=0;exitDy=0;entryX=0.5;entryY=0;entryDx=0;entryDy=0;" edge="1" parent="1" source="VlW7znGUgv2M6Y1tv0mL-61" target="rX8bHVws03hy2yk5hLny-2">
          <mxGeometry width="50" height="50" relative="1" as="geometry">
            <mxPoint x="340" y="1820" as="sourcePoint" />
            <mxPoint x="360" y="1970" as="targetPoint" />
            <Array as="points">
              <mxPoint x="420" y="1830" />
            </Array>
          </mxGeometry>
        </mxCell>
      </root>
    </mxGraphModel>
  </diagram>
</mxfile>
